<svg width="8" height="13" viewBox="0 0 8 13" fill="none" xmlns="http://www.w3.org/2000/svg">
<path d="M7.20711 2.20711C7.59763 1.81658 7.59763 1.18342 7.20711 0.792893C6.81658 0.402369 6.18342 0.402369 5.79289 0.792893L7.20711 2.20711ZM1.5 6.5L0.792893 5.79289C0.402369 6.18342 0.402369 6.81658 0.792893 7.20711L1.5 6.5ZM5.79289 12.2071C6.18342 12.5976 6.81658 12.5976 7.20711 12.2071C7.59763 11.8166 7.59763 11.1834 7.20711 10.7929L5.79289 12.2071ZM5.79289 0.792893L0.792893 5.79289L2.20711 7.20711L7.20711 2.20711L5.79289 0.792893ZM0.792893 7.20711L5.79289 12.2071L7.20711 10.7929L2.20711 5.79289L0.792893 7.20711Z" fill="#1E1E1E"/>
</svg>
