<svg width="48" height="48" viewBox="0 0 48 48" fill="none" xmlns="http://www.w3.org/2000/svg">
<rect x="0.5" y="0.5" width="47" height="47" rx="23.5" fill="white" stroke="#D6DCE3"/>
<path d="M27.2071 20.2071C27.5976 19.8166 27.5976 19.1834 27.2071 18.7929C26.8166 18.4024 26.1834 18.4024 25.7929 18.7929L27.2071 20.2071ZM21.5 24.5L20.7929 23.7929C20.4024 24.1834 20.4024 24.8166 20.7929 25.2071L21.5 24.5ZM25.7929 30.2071C26.1834 30.5976 26.8166 30.5976 27.2071 30.2071C27.5976 29.8166 27.5976 29.1834 27.2071 28.7929L25.7929 30.2071ZM25.7929 18.7929L20.7929 23.7929L22.2071 25.2071L27.2071 20.2071L25.7929 18.7929ZM20.7929 25.2071L25.7929 30.2071L27.2071 28.7929L22.2071 23.7929L20.7929 25.2071Z" fill="#1E1E1E"/>
</svg>
