<svg width="70" height="70" viewBox="0 0 70 70" fill="none" xmlns="http://www.w3.org/2000/svg">
<path d="M26.1449 35.5617C26.7995 35.4248 27.4834 35.1251 28.1286 34.6549C29.9839 33.3003 30.8073 31.0761 29.9659 29.6845C29.051 28.1708 26.5485 28.2726 24.6255 29.9953C22.7865 31.598 22.3942 33.2726 22.3942 35.0325C22.3942 36.2761 22.7883 38.4966 25.1954 40.4249C26.332 39.5385 27.6869 38.8093 29.225 38.282L29.2454 38.2745C28.0636 37.7774 26.5231 36.7963 26.1449 35.5617ZM25.8481 31.2814C25.8481 30.7614 26.2585 30.3433 26.7648 30.3433C27.2705 30.3433 27.6814 30.7634 27.6814 31.2834C27.6814 31.8034 27.2705 32.2215 26.7648 32.2215C26.2586 32.2215 25.8481 31.8014 25.8481 31.2814Z" fill="#4462FC"/>
<path d="M47.639 35.0344C47.6335 33.2726 47.243 31.598 45.4024 29.9953C43.4809 28.2744 40.9767 28.1689 40.0617 29.6846C39.222 31.0762 40.0434 33.3005 41.8986 34.6549C42.544 35.1251 43.228 35.4248 43.8824 35.5617C43.655 36.3037 42.9639 37.0588 41.9098 37.6953C40.4603 38.5685 39.6774 38.6766 30.4036 41.785C26.9717 42.9619 24.9295 45.3008 24.9295 48.0416C24.9295 49.9938 25.9175 51.5002 27.2906 52.6032C28.1542 51.7056 29.2323 50.9266 30.4918 50.3029C29.0417 49.5628 28.5942 49.002 28.5942 48.0416C28.5942 46.4564 31.7333 45.5501 33.1814 45.0678V49.0798L36.8481 47.429V45.0696C38.2985 45.5545 41.4296 46.4596 41.4296 48.0416C41.4296 50.6733 33.9636 52.2253 30.787 54.4369C29.2453 55.5158 28.4163 56.8871 28.4163 58.4988C28.4163 59.4241 28.5228 60.5714 30.1324 61.7113C30.5888 62.0793 31.2229 61.5417 30.9264 61.0246C29.8629 58.8762 30.9922 57.803 33.185 56.8739V59.9791C33.185 61.0006 34.0063 61.8296 35.0183 61.8296C36.0303 61.8296 36.8517 61.0006 36.8517 59.9791V56.8758C38.958 57.7677 40.2838 59.0279 39.1048 61.0246C38.8126 61.5318 39.4348 62.0838 39.8968 61.7113C41.4552 60.5195 41.578 59.498 41.578 58.5229C41.578 57.0222 40.7641 55.5658 39.2203 54.4499C42.3408 53.3118 45.1017 51.3965 45.1017 48.0453C45.1017 45.7303 43.6444 43.7021 41.1253 42.4178C42.302 41.9904 42.8942 41.7035 43.6807 41.2299C47.1257 39.1517 47.639 36.4556 47.639 35.0344ZM43.2648 32.2215C42.7585 32.2215 42.3481 31.8014 42.3481 31.2815C42.3481 30.7615 42.7585 30.3414 43.2648 30.3414C43.7705 30.3414 44.1814 30.7615 44.1814 31.2815C44.1814 31.8014 43.7707 32.2215 43.2648 32.2215Z" fill="#4462FC"/>
<path d="M60.6666 11.8714H48.1111C45.648 11.8714 43.7996 12.9703 42.2096 14.5754C40.4821 16.3191 39.5839 20.1951 36.8333 20.1951V15.0555C37.9248 14.4144 38.6666 13.2344 38.6666 11.8678C38.6666 9.82377 37.0251 8.16675 35 8.16675C32.9748 8.16675 31.3333 9.82377 31.3333 11.8678C31.3333 13.2343 32.0751 14.4143 33.1666 15.0555V37.1096C34.2982 36.7453 35.54 36.3438 36.8333 35.9246V26.6552C37.6288 26.2524 38.2705 25.6011 38.6641 24.7951C39.3018 25.8952 40.5141 26.6755 41.8654 26.6755C43.2359 26.6755 44.4167 25.9074 45.0457 24.7833C47.1935 26.9513 51.1856 26.9931 53.3333 24.8252L50.2178 21.6805L51.647 22.2781C54.4534 23.4514 57.6706 22.1062 58.8333 19.2735L54.4073 17.423C58.695 17.4229 60.6666 14.7072 60.6666 11.8714Z" fill="#4462FC"/>
<path d="M27.7904 14.5754C26.2003 12.9703 24.352 11.8713 21.8889 11.8713H9.33331C9.33331 14.707 11.3049 17.4228 15.5927 17.4228L11.1666 19.2733C12.3292 22.106 15.5466 23.4511 18.353 22.2779L19.7822 21.6803L16.6666 24.825C18.8144 26.993 22.8065 26.9512 24.9542 24.7831C25.5833 25.9073 26.7641 26.6754 28.1346 26.6754C28.1481 26.6754 28.1616 26.6753 28.1752 26.6752C29.9666 26.6546 31.3358 25.0213 31.3358 23.2131V19.4901C29.8908 18.2934 29.0632 15.8601 27.7904 14.5754Z" fill="#4462FC"/>
</svg>
