<svg width="70" height="70" viewBox="0 0 70 70" fill="none" xmlns="http://www.w3.org/2000/svg">
<path d="M12.4578 27.3543C10.6628 29.1493 11.5 33.354 11.5 33.354L12.4578 40.8543L17.9578 50.3543L21.9578 53.8543C21.9578 53.8543 27.5513 56.921 30.4578 57.8543C33.2342 58.7459 35.7623 58.8543 35.9578 58.8543C36.1956 58.8543 37.6576 58.5837 38.4578 57.8543C39.0035 57.3569 38.782 56.2868 39.4578 56.3543L35.9578 55.3543C31.9578 53.3543 26.8578 48.7543 26.4578 48.3543C25.9578 47.8543 23.4578 43.8543 22.9578 41.3543C22.5655 39.3932 21.4578 35.8543 20.9578 33.8543C20.4578 31.8543 20.4578 27.3543 20.4578 27.3543V25.3543C20.4578 25.3543 19 23.8543 17 24.3542C15.3056 24.7776 13.4578 26.3543 12.4578 27.3543Z" fill="url(#paint0_linear)"/>
<path d="M45.2263 47.3542L44.7263 41.8543L41.7263 30.8543L35.2263 20.8543L31.2263 17.3543C31.2263 17.3543 25.6328 12.7877 22.7263 11.8543C19.9499 10.9627 16.2263 11.8543 16.2263 11.8543C15.9885 11.8543 13.5265 12.625 12.7263 13.3543C12.1806 13.8517 9.9021 16.9219 9.22631 16.8543L7.72632 22.3543C7.72632 23.8542 8.22632 29.3542 8.22632 29.3542C8.22632 29.3542 8.67572 34.6262 9.72632 34.8542C9.72632 34.7402 11.3246 40.065 11.7263 39.3542C11.923 39.0062 11.4757 31.7796 11.7263 31.3542C13.2074 28.8407 14.7263 26.3542 14.7263 26.3542C14.7263 26.3542 18.021 24.803 18.2263 24.8543C20.2263 25.3543 27.6966 27.8147 29.2263 29.8543C30.7263 31.8543 34.7263 34.8543 35.2263 36.8543C35.7263 38.8543 37.7263 41.8543 37.7263 41.8543L38.2263 43.8543L39.2263 47.8542L40.2263 52.8542L39.7263 55.3542L39.2263 58.3542L41.2263 56.8542L43.7263 53.8542L45.2263 47.3542Z" fill="url(#paint1_linear)"/>
<path fill-rule="evenodd" clip-rule="evenodd" d="M13.4576 12.3542C4.45756 17.5503 5.45756 29.8541 12.8015 43.3784C13.5819 44.73 14.4304 46.0157 15.3327 47.2284C16.4493 48.959 17.7423 50.5396 19.1581 51.8542C20.6798 53.7563 23.0698 55.4413 25.7225 56.7166C31.0555 59.8141 36.5128 60.6316 40.4576 58.3541C47.9584 54.0235 47.1436 39.3008 39.9575 26.8542C32.7715 14.4075 20.9584 8.02354 13.4576 12.3542ZM39.3842 57.7889C39.5796 57.6962 39.7708 57.5959 39.9576 57.4881C43.2327 55.5972 44.8759 51.3131 44.7155 45.6761C44.5566 40.0884 42.6147 33.4565 39.0915 27.3542C35.5742 21.2621 30.9485 16.6989 26.347 14.1907C21.7289 11.6735 17.2934 11.2942 13.9576 13.2202C9.83628 15.5996 7.95972 19.5949 8.00052 24.7353C8.0336 28.9015 9.33454 33.7786 11.7261 39.001C10.5319 34.2433 10.9038 29.6083 13.658 26.8542C17.6891 22.8232 27.158 23.8542 35.158 35.7625C41.1997 46.2271 41.2343 54.8087 39.3842 57.7889ZM16.1553 46.6588C19.1035 50.6136 22.6295 53.7569 26.1917 55.8326C26.9797 56.2099 27.7957 56.5517 28.6235 56.8514C32.1751 58.1373 35.6772 58.5544 37.8707 57.8963C38.1127 57.8237 38.5776 57.4531 38.9586 56.3311C31.5714 55.2631 26.6177 50.3922 23.6475 44.3885C20.7412 38.5141 19.7066 31.5114 20.1239 25.7643C17.6543 25.5415 15.6456 26.2808 14.3651 27.5613C11.9903 29.936 11.5333 34.107 12.6907 38.7366C13.3702 41.4545 14.5826 44.2146 16.1553 46.6588ZM22.6141 26.2833C22.1011 26.1186 21.6014 25.9925 21.1166 25.9022C20.7231 31.4815 21.7371 38.272 24.5438 43.9451C27.4297 49.7782 32.182 54.3837 39.2168 55.3576C39.415 54.3801 39.5062 53.153 39.4318 51.7038C39.2304 47.7813 37.8226 42.3873 34.309 36.292C30.4033 30.4885 26.2101 27.4374 22.6141 26.2833Z" fill="url(#paint2_linear)"/>
<path d="M56.132 26.854L58.632 32.854L57.632 40.854L52.132 50.354L48.132 53.854C48.132 53.854 42.5384 56.9207 39.632 57.854C36.8556 58.7456 34.3274 58.854 34.132 58.854C33.8941 58.854 32.4322 58.5834 31.632 57.854C31.0862 57.3566 31.3077 56.2864 30.632 56.354L34.132 55.354C38.132 53.354 43.232 48.754 43.632 48.354C44.132 47.854 46.632 43.854 47.132 41.354C47.5242 39.3928 48.632 35.854 49.132 33.854C49.632 31.854 49.632 27.354 49.632 27.354V25.354L53.132 25.854L56.132 26.854Z" fill="url(#paint3_linear)"/>
<path d="M24.8634 47.3539L25.3634 41.854L28.3634 30.854L34.8634 20.854L38.8634 17.354C38.8634 17.354 44.457 12.7874 47.3634 11.854C50.1398 10.9624 53.8634 11.854 53.8634 11.854C54.1012 11.854 56.5632 12.6247 57.3634 13.354C57.9091 13.8514 60.1876 16.9216 60.8634 16.854L62.3634 22.354C62.3634 23.8539 61.8634 29.3539 61.8634 29.3539C61.8634 29.3539 61.414 34.6259 60.3634 34.8539C60.3634 34.7399 58.7651 40.0647 58.3634 39.3539C58.1667 39.0059 58.614 31.7793 58.3634 31.3539C56.8823 28.8404 55.3634 26.3539 55.3634 26.3539C55.3634 26.3539 52.0688 24.8027 51.8634 24.854C49.8634 25.354 42.3931 27.8144 40.8634 29.854C39.3634 31.854 35.3634 34.854 34.8634 36.854C34.3634 38.854 32.3634 41.854 32.3634 41.854L30.8634 47.8539L29.8634 52.8539L30.3634 55.3539L30.8634 58.3539L28.8634 56.8539L26.3634 53.8539L24.8634 47.3539Z" fill="url(#paint4_linear)"/>
<path fill-rule="evenodd" clip-rule="evenodd" d="M56.632 12.3539C65.632 17.5501 64.632 29.8538 57.2881 43.3782C56.5077 44.7298 55.6592 46.0155 54.7568 47.2282C53.6403 48.9588 52.3472 50.5393 50.9315 51.854C49.4098 53.7561 47.0198 55.4411 44.3671 56.7163C39.034 59.8138 33.5768 60.6314 29.632 58.3538C22.1311 54.0232 22.946 39.3006 30.132 26.8539C37.3181 14.4073 49.1311 8.02332 56.632 12.3539ZM30.7054 57.7886C30.51 57.6959 30.3188 57.5956 30.132 57.4878C26.8569 55.5969 25.2137 51.3128 25.374 45.6758C25.533 40.0882 27.4749 33.4563 30.9981 27.3539C34.5153 21.2619 39.1411 16.6987 43.7426 14.1905C48.3607 11.6732 52.7961 11.294 56.132 13.22C60.2533 15.5994 62.1298 19.5947 62.089 24.735C62.056 28.9013 60.755 33.7783 58.3635 39.0008C59.5576 34.2431 59.1857 29.6081 56.4315 26.8539C52.4004 22.8229 42.9315 23.8539 34.9315 35.7623C28.8898 46.2269 28.8553 54.8085 30.7054 57.7886ZM53.9342 46.6586C50.9861 50.6133 47.46 53.7567 43.8978 55.8324C43.1099 56.2097 42.2939 56.5514 41.466 56.8512C37.9145 58.1371 34.4124 58.5541 32.2188 57.8961C31.9768 57.8235 31.512 57.4529 31.1309 56.3308C38.5182 55.2629 43.4718 50.392 46.4421 44.3883C49.3484 38.5139 50.383 31.5112 49.9657 25.7641C52.4353 25.5413 54.4439 26.2806 55.7244 27.561C58.0992 29.9358 58.5562 34.1067 57.3988 38.7363C56.7193 41.4543 55.507 44.2143 53.9342 46.6586ZM47.4755 26.283C47.9884 26.1184 48.4882 25.9923 48.973 25.9019C49.3665 31.4813 48.3524 38.2718 45.5458 43.9448C42.6599 49.778 37.9076 54.3835 30.8727 55.3574C30.6746 54.3798 30.5833 53.1528 30.6577 51.7036C30.8591 47.7811 32.2669 42.387 35.7806 36.2918C39.6863 30.4882 43.8794 27.4371 47.4755 26.283Z" fill="url(#paint5_linear)"/>
<defs>
<linearGradient id="paint0_linear" x1="16.4578" y1="26.8542" x2="36.9578" y2="58.3542" gradientUnits="userSpaceOnUse">
<stop stop-color="#3F6AB0"/>
<stop offset="0.302887" stop-color="#48A5DC"/>
</linearGradient>
<linearGradient id="paint1_linear" x1="41.5" y1="29.854" x2="5" y2="23.854" gradientUnits="userSpaceOnUse">
<stop offset="0.541436" stop-color="#48A5DC"/>
<stop offset="0.924068" stop-color="#40529D"/>
</linearGradient>
<linearGradient id="paint2_linear" x1="10.5" y1="44.354" x2="41.4999" y2="53.354" gradientUnits="userSpaceOnUse">
<stop stop-color="#4162A9"/>
<stop offset="0.159425" stop-color="#48A5DC"/>
<stop offset="0.501795" stop-color="#48A5DC"/>
<stop offset="0.786187" stop-color="#48A5DC"/>
<stop offset="1" stop-color="#4161A8"/>
</linearGradient>
<linearGradient id="paint3_linear" x1="53.632" y1="26.854" x2="33.132" y2="58.354" gradientUnits="userSpaceOnUse">
<stop stop-color="#DF3024"/>
<stop offset="1" stop-color="#BC160B"/>
</linearGradient>
<linearGradient id="paint4_linear" x1="33.3634" y1="44.354" x2="53.8634" y2="12.854" gradientUnits="userSpaceOnUse">
<stop stop-color="#DA2124"/>
<stop offset="1" stop-color="#AC2524"/>
</linearGradient>
<linearGradient id="paint5_linear" x1="56.8634" y1="13.354" x2="29.8634" y2="57.354" gradientUnits="userSpaceOnUse">
<stop stop-color="#AC2524"/>
<stop offset="0.0196844" stop-color="#B51E17"/>
<stop offset="0.383535" stop-color="#B92424"/>
<stop offset="0.759644" stop-color="#C31B0F"/>
<stop offset="0.913273" stop-color="#DA2124"/>
<stop offset="1" stop-color="#DA2124"/>
</linearGradient>
</defs>
</svg>
