<svg width="486" height="267" viewBox="0 0 486 267" fill="none" xmlns="http://www.w3.org/2000/svg">
<path d="M232.167 266.335C320.159 266.335 391.49 260.272 391.49 252.792C391.49 245.313 320.159 239.25 232.167 239.25C144.176 239.25 72.8451 245.313 72.8451 252.792C72.8451 260.272 144.176 266.335 232.167 266.335Z" fill="#F2F5F9"/>
<path fill-rule="evenodd" clip-rule="evenodd" d="M340.107 18.1512C322.574 -6.94754 297.305 15.6999 285.865 32.5867C274.426 49.4735 273.647 53.1792 246.755 44.7673C219.862 36.3554 186.289 53.317 190.984 84.8928C195.678 116.469 229.343 144.633 267.507 117.037C311.446 85.2638 335.088 110.392 314.069 65.5989C316.883 60.343 357.64 43.2499 340.107 18.1512Z" fill="#1E1E1E"/>
<path fill-rule="evenodd" clip-rule="evenodd" d="M305.337 115.984L274.233 241.998L280.32 243.591C295.925 214.078 306.205 194.095 311.16 183.64C322.613 159.477 319.609 146.269 320.768 146.269C321.541 146.269 320.043 177.374 316.275 239.584L323.158 238.788C334.968 206.101 341.905 183.286 343.968 170.342C346.031 157.398 342.21 139.279 332.504 115.984H305.337Z" fill="#FFC7C2"/>
<path fill-rule="evenodd" clip-rule="evenodd" d="M318.428 72.1694C339.505 72.1694 356.475 85.3229 362.245 97.4951C366.092 105.61 359.452 113.999 342.327 122.662L338.07 118.585C345.616 109.786 349.389 104.23 349.389 101.915C349.389 99.6013 345.888 96.9536 338.885 93.9723L332.504 115.984C349.741 149.596 358.359 168.953 358.359 174.055C358.387 190.897 279.482 190.897 279.482 174.055C279.482 168.953 288.101 149.596 305.337 115.984L301.574 101.915C296.926 113.028 290.017 118.585 280.847 118.585C271.678 118.585 261.282 109.887 249.66 92.4927L255.895 89.2528C267.225 96.5291 275.088 100.167 279.482 100.167C286.074 100.167 297.35 72.1694 318.428 72.1694Z" fill="#F0194D"/>
<path fill-rule="evenodd" clip-rule="evenodd" d="M353.9 160.324C356.873 167.36 358.359 171.937 358.359 174.055C358.361 174.824 358.197 175.559 357.884 176.258C354.22 174.662 351.659 171.01 351.659 166.759C351.659 164.327 352.497 162.091 353.9 160.324Z" fill="#EF4D4D"/>
<path fill-rule="evenodd" clip-rule="evenodd" d="M280.317 176.932C279.772 176.035 279.482 175.076 279.482 174.055C279.482 171.764 281.22 166.598 284.696 158.558C287.148 160.452 288.727 163.421 288.727 166.758C288.727 171.813 285.106 176.021 280.317 176.932Z" fill="#EF4D4D"/>
<path fill-rule="evenodd" clip-rule="evenodd" d="M340.12 131.031C343.5 137.813 346.41 143.818 348.851 149.046C348.213 149.169 347.553 149.233 346.879 149.233C341.16 149.233 336.523 144.596 336.523 138.877C336.523 135.741 337.918 132.93 340.12 131.031L340.12 131.031Z" fill="#EF4D4D"/>
<path fill-rule="evenodd" clip-rule="evenodd" d="M289.004 149.017C291.453 143.772 294.374 137.746 297.767 130.939C300.032 132.838 301.473 135.69 301.473 138.877C301.473 144.597 296.836 149.233 291.117 149.233C290.393 149.233 289.686 149.159 289.004 149.017Z" fill="#EF4D4D"/>
<path fill-rule="evenodd" clip-rule="evenodd" d="M363.218 100.709C363.896 105.795 360.526 110.987 353.109 116.284C352.188 114.736 351.659 112.928 351.659 110.996C351.659 105.276 356.296 100.64 362.015 100.64C362.422 100.64 362.823 100.663 363.218 100.709Z" fill="#EF4D4D"/>
<path fill-rule="evenodd" clip-rule="evenodd" d="M339.436 119.893L338.069 118.585C340.649 115.577 342.788 112.948 344.485 110.698C344.488 110.797 344.489 110.896 344.489 110.996C344.489 114.778 342.462 118.086 339.436 119.893ZM336.848 100.999L332.504 115.984C333.433 117.796 334.338 119.567 335.217 121.296C334.861 121.333 334.499 121.352 334.134 121.352C328.414 121.352 323.778 116.715 323.778 110.996C323.778 105.276 328.414 100.64 334.134 100.64C335.073 100.64 335.983 100.765 336.848 100.999Z" fill="#EF4D4D"/>
<path fill-rule="evenodd" clip-rule="evenodd" d="M302.881 120.791C303.68 119.222 304.498 117.62 305.337 115.984L301.574 101.916C299.959 105.778 298.07 108.969 295.908 111.489C295.9 111.326 295.896 111.161 295.896 110.996C295.896 105.276 300.533 100.64 306.252 100.64C311.972 100.64 316.608 105.276 316.608 110.996C316.608 116.715 311.972 121.352 306.252 121.352C305.072 121.352 303.938 121.154 302.881 120.791Z" fill="#EF4D4D"/>
<path fill-rule="evenodd" clip-rule="evenodd" d="M286.072 117.92C284.421 118.363 282.679 118.585 280.847 118.585C276.923 118.585 272.774 116.992 268.401 113.806C268.149 112.912 268.015 111.97 268.015 110.996C268.015 105.276 272.651 100.64 278.371 100.64C284.09 100.64 288.727 105.276 288.727 110.996C288.727 113.658 287.722 116.085 286.072 117.92Z" fill="#EF4D4D"/>
<path fill-rule="evenodd" clip-rule="evenodd" d="M338.93 76.4771C345.737 79.4438 351.518 83.6754 355.84 88.3085C354.047 91.3949 350.706 93.4701 346.879 93.4701C341.16 93.4701 336.523 88.8335 336.523 83.1141C336.523 80.5886 337.427 78.2743 338.93 76.4771Z" fill="#EF4D4D"/>
<path fill-rule="evenodd" clip-rule="evenodd" d="M287.807 92.9304C291.301 88.7025 295.534 83.3917 300.707 79.2C301.2 80.4076 301.472 81.7293 301.472 83.1145C301.472 88.8339 296.836 93.4704 291.116 93.4704C289.959 93.4704 288.846 93.2806 287.807 92.9304Z" fill="#EF4D4D"/>
<path d="M318.998 93.4704C324.717 93.4704 329.354 88.8339 329.354 83.1145C329.354 77.3951 324.717 72.7585 318.998 72.7585C313.279 72.7585 308.642 77.3951 308.642 83.1145C308.642 88.8339 313.279 93.4704 318.998 93.4704Z" fill="#EF4D4D"/>
<path d="M318.998 149.233C324.717 149.233 329.354 144.597 329.354 138.877C329.354 133.158 324.717 128.521 318.998 128.521C313.279 128.521 308.642 133.158 308.642 138.877C308.642 144.597 313.279 149.233 318.998 149.233Z" fill="#EF4D4D"/>
<path d="M306.252 177.114C311.972 177.114 316.608 172.478 316.608 166.759C316.608 161.039 311.972 156.403 306.252 156.403C300.533 156.403 295.896 161.039 295.896 166.759C295.896 172.478 300.533 177.114 306.252 177.114Z" fill="#EF4D4D"/>
<path d="M334.134 177.114C339.853 177.114 344.489 172.478 344.489 166.759C344.489 161.039 339.853 156.403 334.134 156.403C328.414 156.403 323.778 161.039 323.778 166.759C323.778 172.478 328.414 177.114 334.134 177.114Z" fill="#EF4D4D"/>
<path fill-rule="evenodd" clip-rule="evenodd" d="M323.159 238.788L316.275 239.584C316.275 240.685 316.275 242.331 316.275 244.523C316.275 247.811 327.896 254.118 334.013 251.853C338.091 250.343 334.472 245.988 323.159 238.788Z" fill="#1E1E1E"/>
<path fill-rule="evenodd" clip-rule="evenodd" d="M274.233 241.998L280.295 243.592C280.295 244.574 280.295 246.161 280.295 248.353C280.295 251.641 271.913 259.217 264.913 256.901C260.247 255.356 263.353 250.389 274.233 241.998Z" fill="#1E1E1E"/>
<path fill-rule="evenodd" clip-rule="evenodd" d="M324.206 63.2688L325.457 73.8801C325.849 77.2056 323.471 80.2193 320.145 80.6113C319.903 80.6399 319.659 80.6538 319.415 80.653C315.611 80.6404 312.512 77.5931 312.436 73.7894L312.221 63.053L324.206 63.2688Z" fill="#FFC7C2"/>
<path fill-rule="evenodd" clip-rule="evenodd" d="M325.377 73.2023C320.681 71.7959 316.113 68.8576 312.52 65.1471L312.423 63.0569L324.206 63.2691L325.377 73.2023Z" fill="#1E1E1E"/>
<path fill-rule="evenodd" clip-rule="evenodd" d="M255.895 89.253L249.66 92.4929C240.068 73.6833 239.421 65.7004 247.72 68.5442C256.018 71.3881 258.743 78.291 255.895 89.253Z" fill="#FFC7C2"/>
<path fill-rule="evenodd" clip-rule="evenodd" d="M298.305 51.4096C297.35 53.8631 298.733 56.4406 301.581 59.1094C304.428 61.7781 314.023 68.7889 321.605 69.0466C334.141 69.4727 336.03 59.5153 334.118 46.5541C333.671 43.5236 332.957 40.7616 331.988 38.3035C329.86 39.038 327.359 39.6227 324.441 40.0152C321.313 40.4361 318.553 40.5677 316.146 40.4519C314.7 44.7034 311.794 49.1926 305.949 52.7172C303.55 49.2606 299.261 48.9561 298.305 51.4096Z" fill="#FFC7C2"/>
<path fill-rule="evenodd" clip-rule="evenodd" d="M342.327 122.662L338.07 118.584C325.534 124.886 322.6 129.617 329.268 132.778C335.936 135.939 340.289 132.567 342.327 122.662Z" fill="#FFC7C2"/>
<path fill-rule="evenodd" clip-rule="evenodd" d="M191.781 121.625C196.457 128.627 199.713 140.123 201.548 156.112C203.382 172.101 204.47 200.315 204.81 240.752L194.292 241.024C182.176 179.642 174.997 148.952 172.755 148.952C170.513 148.952 165.567 180.414 157.915 243.339L148.206 241.796C145.418 202.228 144.535 173.667 145.555 156.112C146.576 138.557 148.986 127.061 152.786 121.625H191.781Z" fill="#1E1E1E"/>
<path fill-rule="evenodd" clip-rule="evenodd" d="M148.206 241.796L157.915 243.339C157.915 245.328 157.915 247.136 157.915 248.765C157.915 251.208 140.462 259.693 132.74 256.213C127.592 253.893 132.747 249.087 148.206 241.796Z" fill="#48A5FB"/>
<path fill-rule="evenodd" clip-rule="evenodd" d="M204.809 240.752C218.337 251.206 221.986 257.138 215.757 258.549C210.577 259.723 194.292 249.507 194.292 248.022C194.292 247.032 194.292 244.7 194.292 241.024L204.809 240.752Z" fill="#48A5FB"/>
<path fill-rule="evenodd" clip-rule="evenodd" d="M222.886 99.4826C222.886 112.545 214.625 121.25 198.102 125.597L194.022 119.696C203.042 112.279 207.552 106.289 207.552 101.724C207.552 97.1601 203.042 92.8281 194.022 88.7284L191.781 121.625H152.786L150.084 88.7284C142.466 96.5843 134.501 99.2068 126.189 96.5961C117.876 93.9853 112.429 83.3336 109.846 64.6408L115.966 61.0728C120.808 72.6956 125.641 79.2004 130.464 80.5872C137.7 82.6674 144.459 62.2446 171.119 62.2446C197.779 62.2446 222.886 79.8886 222.886 99.4826Z" fill="#48A5FB"/>
<path fill-rule="evenodd" clip-rule="evenodd" d="M179.09 43.8293V62.8187C179.09 67.2433 175.503 70.8301 171.078 70.8301C170.793 70.8301 170.509 70.813 170.226 70.7788C166.332 70.3081 163.557 66.7702 164.028 62.8766L165.737 48.7386L179.09 43.8293Z" fill="#FFC7C2"/>
<path fill-rule="evenodd" clip-rule="evenodd" d="M179.09 50.8744C176.177 57.3671 170.996 61.7545 163.986 63.3633C163.994 63.2018 164.008 63.0395 164.028 62.8766L165.737 48.7386L179.09 43.8293V50.8744Z" fill="#1E1E1E"/>
<path fill-rule="evenodd" clip-rule="evenodd" d="M146.138 14.3134C146.914 7.98933 152.67 3.49215 158.994 4.26864C161.896 4.62499 164.414 6.03008 166.214 8.05751C168.786 4.88508 172.885 3.06837 177.237 3.6028C181.637 4.14302 185.205 6.95177 186.912 10.713C187.502 10.7125 188.1 10.7482 188.701 10.822C196.606 11.7926 202.227 18.9878 201.257 26.8928C200.961 29.3022 200.087 31.4994 198.791 33.3625C200.498 34.7217 201.48 36.9101 201.194 39.2349C200.786 42.5567 197.936 44.9824 194.664 44.9334C193.526 51.2939 187.597 55.7269 181.106 54.9298C174.386 54.1048 159.375 37.7324 154.236 37.1015C149.098 36.4706 145.444 31.7938 146.075 26.6555C146.288 24.9224 146.961 23.3582 147.957 22.0703C146.499 19.8625 145.79 17.1448 146.138 14.3134Z" fill="#1E1E1E"/>
<path fill-rule="evenodd" clip-rule="evenodd" d="M189.178 43.0467C188.954 44.8721 185.727 47.421 183.539 47.8215C178.886 56.0792 170.736 60.269 160.273 58.9842C150.834 57.8252 148.176 46.8224 152.299 25.9756C153.48 26.5846 154.787 26.9985 156.182 27.1699C160.068 27.647 163.739 26.1331 166.173 23.4277C167.803 25.4645 170.079 26.9857 172.74 27.6545C173.816 33.7305 181.516 38.998 185.186 39.4486C188.856 39.8992 189.405 41.1983 189.178 43.0467Z" fill="#FFC7C2"/>
<path fill-rule="evenodd" clip-rule="evenodd" d="M109.846 64.6409L115.966 61.0729C110.763 41.4776 106.049 36.0978 101.827 44.9338C97.6038 53.7697 100.277 60.3387 109.846 64.6409Z" fill="#FFC7C2"/>
<path fill-rule="evenodd" clip-rule="evenodd" d="M194.022 119.696L198.102 125.597C195.415 133.975 190.326 135.551 182.834 130.326C175.342 125.101 179.072 121.558 194.022 119.696Z" fill="#FFC7C2"/>
<path d="M424.337 34.6573L428.39 30.6044H424.475V26.5549H435.303V37.3833H431.254V33.4676L427.201 37.5206C428.385 39.2564 429.078 41.3528 429.078 43.608C429.078 49.5788 424.221 54.4363 418.25 54.4363C412.279 54.4363 407.422 49.5788 407.422 43.608C407.422 37.6375 412.279 32.78 418.25 32.78C420.505 32.78 422.602 33.473 424.337 34.6573ZM418.25 36.8298C414.512 36.8298 411.471 39.8705 411.471 43.6083C411.471 47.346 414.512 50.387 418.25 50.387C421.988 50.387 425.029 47.3463 425.029 43.6083C425.029 39.8705 421.988 36.8298 418.25 36.8298Z" fill="#48A5FB"/>
<path d="M10.0483 79.4864L8.51471 75.6905L7.42195 78.2649L4.75941 77.1347L7.78152 70.0151L14.9012 73.0372L13.771 75.6997L11.1965 74.6069L12.7301 78.4029C14.202 78.1086 15.7738 78.2381 17.2566 78.8675C21.1824 80.5339 23.0206 85.0834 21.3542 89.009C19.6878 92.9349 15.1383 94.773 11.2125 93.1066C7.28683 91.4402 5.44871 86.8907 7.11513 82.9649C7.74452 81.4821 8.78526 80.2972 10.0483 79.4864ZM9.77785 84.0952C8.73466 86.5528 9.88523 89.4009 12.3428 90.4441C14.8004 91.4872 17.6485 90.3367 18.6918 87.8789C19.7349 85.4215 18.5844 82.5732 16.1267 81.5299C13.669 80.4869 10.821 81.6378 9.77785 84.0952Z" fill="#48A5FB"/>
<path d="M78.8068 160.263L80.519 158.551C79.3085 156.777 78.6001 154.635 78.6001 152.33C78.6001 146.23 83.563 141.267 89.6636 141.267C95.7636 141.267 100.726 146.23 100.726 152.33C100.726 158.43 95.7636 163.393 89.6636 163.393C87.3597 163.393 85.2181 162.686 83.4448 161.476L81.7322 163.189L84.7648 166.221L81.8393 169.147L78.8068 166.114L75.7726 169.148L72.8472 166.223L75.8813 163.189L72.8451 160.152L75.7706 157.227L78.8068 160.263ZM89.6636 145.405C85.8445 145.405 82.7378 148.511 82.7378 152.33C82.7378 156.149 85.8445 159.256 89.6636 159.256C93.4825 159.256 96.5894 156.149 96.5894 152.33C96.5892 148.511 93.4825 145.405 89.6636 145.405Z" fill="#F0194D"/>
<path d="M438.375 125.379L438.881 127.033C440.406 126.864 441.994 127.136 443.448 127.908C447.295 129.954 448.761 134.748 446.715 138.596C444.67 142.443 439.875 143.909 436.028 141.863C432.181 139.817 430.715 135.023 432.76 131.176C433.533 129.723 434.698 128.61 436.055 127.897L435.549 126.243L432.62 127.138L431.756 124.312L434.685 123.416L433.789 120.485L436.615 119.621L437.511 122.552L440.444 121.656L441.308 124.482L438.375 125.379ZM444.106 137.208C445.386 134.8 444.469 131.799 442.06 130.518C439.652 129.237 436.65 130.155 435.37 132.563C434.089 134.972 435.007 137.973 437.415 139.254C439.824 140.534 442.825 139.617 444.106 137.208Z" fill="#F0194D"/>
<path d="M401.846 90.2837C404.045 90.2837 405.829 88.5005 405.829 86.3007C405.829 84.1009 404.045 82.3176 401.846 82.3176C399.646 82.3176 397.863 84.1009 397.863 86.3007C397.863 88.5005 399.646 90.2837 401.846 90.2837Z" fill="#FEE245"/>
<path d="M481.507 138.08C483.707 138.08 485.49 136.297 485.49 134.097C485.49 131.898 483.707 130.114 481.507 130.114C479.307 130.114 477.524 131.898 477.524 134.097C477.524 136.297 479.307 138.08 481.507 138.08Z" fill="#FEE245"/>
<path d="M266.422 169.945C268.621 169.945 270.405 168.162 270.405 165.962C270.405 163.762 268.621 161.979 266.422 161.979C264.222 161.979 262.438 163.762 262.438 165.962C262.438 168.162 264.222 169.945 266.422 169.945Z" fill="#FEE245"/>
<path d="M75.235 106.216C77.4348 106.216 79.2181 104.433 79.2181 102.233C79.2181 100.033 77.4348 98.25 75.235 98.25C73.0352 98.25 71.252 100.033 71.252 102.233C71.252 104.433 73.0352 106.216 75.235 106.216Z" fill="#FEE245"/>
<path d="M35.4044 58.4195C37.6042 58.4195 39.3875 56.6362 39.3875 54.4364C39.3875 52.2366 37.6042 50.4534 35.4044 50.4534C33.2047 50.4534 31.4214 52.2366 31.4214 54.4364C31.4214 56.6362 33.2047 58.4195 35.4044 58.4195Z" fill="#FEE245"/>
</svg>
