<svg width="70" height="70" viewBox="0 0 70 70" fill="none" xmlns="http://www.w3.org/2000/svg">
<path d="M31.1335 58.9906C10.7837 48.788 4.04634 26.8982 10.1852 26.2825C19.1629 25.3821 28.4052 31.6988 30.5 36.5C32.5948 41.3012 31.1335 58.9906 31.1335 58.9906Z" fill="#5CAA26"/>
<path d="M59.0897 20.2808C51.4286 20.2808 39.273 29.8987 38.5 35C37.1781 49.7037 40.8347 58.6903 43.2288 61.0909C64.0523 44.5868 64.4764 23.5816 59.0897 20.2808Z" fill="#5CAA26"/>
<path d="M35.3231 47.2874C34.8244 43.6866 34.7246 47.2874 34.7246 47.2874C34.7246 56.2897 35.0238 58.0902 35.9216 60.1907C36.599 61.7754 39.453 63.3114 38.0165 60.1907C36.58 57.0699 35.8219 50.8883 35.3231 47.2874Z" fill="#5CAA26"/>
<path fill-rule="evenodd" clip-rule="evenodd" d="M12.5792 19.0805C14.6741 13.9792 23.2331 7.55738 33.5278 14.2791C39.2138 9.77801 47.5931 6.47758 54.4762 11.5786C56.5006 13.079 55.9723 14.2792 55.3737 15.1795C54.7752 16.0798 44.9708 25.7771 34.4255 27.4826C25.1483 28.983 11.2236 22.3813 12.5792 19.0805ZM32.8525 25.4553C34.347 25.9469 36.4425 24.2066 37.109 22.1693C37.7755 20.1319 37.0312 18.1419 35.5367 17.6504C34.0422 17.1589 32.3634 18.3519 31.697 20.3893C31.0305 22.4266 31.358 24.9638 32.8525 25.4553Z" fill="#5CAA26"/>
</svg>
