<svg width="604" height="265" viewBox="0 0 604 265" fill="none" xmlns="http://www.w3.org/2000/svg">
<path fill-rule="evenodd" clip-rule="evenodd" d="M224.735 34.6467H378.304C393.819 34.6467 406.396 47.2239 406.396 62.7386V216.308C406.396 231.822 393.819 244.399 378.304 244.399H224.735C209.22 244.399 196.643 231.822 196.643 216.308V62.7386C196.643 47.2239 209.22 34.6467 224.735 34.6467Z" fill="#48A5FB"/>
<path fill-rule="evenodd" clip-rule="evenodd" d="M224.735 34.6467H237.844V244.399H224.735C209.22 244.399 196.643 231.822 196.643 216.308V62.7386C196.643 47.2239 209.22 34.6467 224.735 34.6467Z" fill="#59AFFF"/>
<path fill-rule="evenodd" clip-rule="evenodd" d="M378.304 34.6467C393.819 34.6467 406.396 47.2239 406.396 62.7386V216.308C406.396 231.822 393.819 244.399 378.304 244.399H365.194V34.6467H378.304Z" fill="#59AFFF"/>
<path fill-rule="evenodd" clip-rule="evenodd" d="M224.735 34.6467H378.304C393.819 34.6467 406.396 47.2239 406.396 62.7386V101.131H196.643V62.7386C196.643 47.2239 209.22 34.6467 224.735 34.6467Z" fill="#14288C"/>
<path fill-rule="evenodd" clip-rule="evenodd" d="M278.578 47.7561H324.461C335.58 47.7561 344.594 56.7697 344.594 67.8886C344.594 79.0075 335.58 88.0211 324.461 88.0211H278.578C267.459 88.0211 258.445 79.0075 258.445 67.8886C258.445 56.7697 267.459 47.7561 278.578 47.7561Z" fill="white"/>
<path fill-rule="evenodd" clip-rule="evenodd" d="M279.046 67.7951C279.046 66.4218 278.847 65.3605 278.449 64.6114C278.051 63.8623 277.485 63.4877 276.752 63.4877C276.018 63.4877 275.46 63.8623 275.078 64.6114C274.696 65.3605 274.505 66.4218 274.505 67.7951C274.505 69.1685 274.696 70.2337 275.078 70.9906C275.46 71.7475 276.018 72.126 276.752 72.126C277.485 72.126 278.051 71.7475 278.449 70.9906C278.847 70.2337 279.046 69.1685 279.046 67.7951ZM283.049 67.7951C283.049 68.9969 282.893 70.0659 282.581 71.0023C282.269 71.9387 281.836 72.7229 281.282 73.355C280.728 73.9871 280.064 74.467 279.292 74.7947C278.519 75.1224 277.681 75.2863 276.775 75.2863C275.855 75.2863 275.008 75.1224 274.235 74.7947C273.463 74.467 272.8 73.9871 272.245 73.355C271.691 72.7229 271.262 71.9387 270.958 71.0023C270.654 70.0659 270.501 68.9969 270.501 67.7951C270.501 66.5934 270.654 65.5283 270.958 64.5997C271.262 63.6711 271.691 62.8908 272.245 62.2587C272.8 61.6266 273.463 61.1467 274.235 60.819C275.008 60.4913 275.855 60.3274 276.775 60.3274C277.681 60.3274 278.519 60.4913 279.292 60.819C280.064 61.1467 280.728 61.6266 281.282 62.2587C281.836 62.8908 282.269 63.6711 282.581 64.5997C282.893 65.5283 283.049 66.5934 283.049 67.7951ZM293.232 67.7951C293.232 66.4218 293.034 65.3605 292.636 64.6114C292.238 63.8623 291.672 63.4877 290.938 63.4877C290.205 63.4877 289.647 63.8623 289.265 64.6114C288.882 65.3605 288.691 66.4218 288.691 67.7951C288.691 69.1685 288.882 70.2337 289.265 70.9906C289.647 71.7475 290.205 72.126 290.938 72.126C291.672 72.126 292.238 71.7475 292.636 70.9906C293.034 70.2337 293.232 69.1685 293.232 67.7951ZM297.236 67.7951C297.236 68.9969 297.079 70.0659 296.767 71.0023C296.455 71.9387 296.022 72.7229 295.468 73.355C294.914 73.9871 294.251 74.467 293.478 74.7947C292.706 75.1224 291.867 75.2863 290.962 75.2863C290.041 75.2863 289.194 75.1224 288.422 74.7947C287.649 74.467 286.986 73.9871 286.432 73.355C285.878 72.7229 285.449 71.9387 285.144 71.0023C284.84 70.0659 284.688 68.9969 284.688 67.7951C284.688 66.5934 284.84 65.5283 285.144 64.5997C285.449 63.6711 285.878 62.8908 286.432 62.2587C286.986 61.6266 287.649 61.1467 288.422 60.819C289.194 60.4913 290.041 60.3274 290.962 60.3274C291.867 60.3274 292.706 60.4913 293.478 60.819C294.251 61.1467 294.914 61.6266 295.468 62.2587C296.022 62.8908 296.455 63.6711 296.767 64.5997C297.079 65.5283 297.236 66.5934 297.236 67.7951ZM300.341 74.9118V72.0884H303.164V74.9118H300.341ZM314.826 67.7951C314.826 66.4218 314.627 65.3605 314.229 64.6114C313.831 63.8623 313.265 63.4877 312.532 63.4877C311.798 63.4877 311.24 63.8623 310.858 64.6114C310.476 65.3605 310.284 66.4218 310.284 67.7951C310.284 69.1685 310.476 70.2337 310.858 70.9906C311.24 71.7475 311.798 72.126 312.532 72.126C313.265 72.126 313.831 71.7475 314.229 70.9906C314.627 70.2337 314.826 69.1685 314.826 67.7951ZM318.829 67.7951C318.829 68.9969 318.673 70.0659 318.361 71.0023C318.049 71.9387 317.616 72.7229 317.062 73.355C316.508 73.9871 315.844 74.467 315.072 74.7947C314.299 75.1224 313.46 75.2863 312.555 75.2863C311.634 75.2863 310.788 75.1224 310.015 74.7947C309.243 74.467 308.579 73.9871 308.025 73.355C307.471 72.7229 307.042 71.9387 306.738 71.0023C306.433 70.0659 306.281 68.9969 306.281 67.7951C306.281 66.5934 306.433 65.5283 306.738 64.5997C307.042 63.6711 307.471 62.8908 308.025 62.2587C308.579 61.6266 309.243 61.1467 310.015 60.819C310.788 60.4913 311.634 60.3274 312.555 60.3274C313.46 60.3274 314.299 60.4913 315.072 60.819C315.844 61.1467 316.508 61.6266 317.062 62.2587C317.616 62.8908 318.049 63.6711 318.361 64.5997C318.673 65.5283 318.829 66.5934 318.829 67.7951ZM329.012 67.7951C329.012 66.4218 328.813 65.3605 328.415 64.6114C328.017 63.8623 327.452 63.4877 326.718 63.4877C325.985 63.4877 325.427 63.8623 325.044 64.6114C324.662 65.3605 324.471 66.4218 324.471 67.7951C324.471 69.1685 324.662 70.2337 325.044 70.9906C325.427 71.7475 325.985 72.126 326.718 72.126C327.452 72.126 328.017 71.7475 328.415 70.9906C328.813 70.2337 329.012 69.1685 329.012 67.7951ZM333.015 67.7951C333.015 68.9969 332.859 70.0659 332.547 71.0023C332.235 71.9387 331.802 72.7229 331.248 73.355C330.694 73.9871 330.031 74.467 329.258 74.7947C328.486 75.1224 327.647 75.2863 326.742 75.2863C325.821 75.2863 324.974 75.1224 324.202 74.7947C323.429 74.467 322.766 73.9871 322.212 73.355C321.658 72.7229 321.229 71.9387 320.924 71.0023C320.62 70.0659 320.468 68.9969 320.468 67.7951C320.468 66.5934 320.62 65.5283 320.924 64.5997C321.229 63.6711 321.658 62.8908 322.212 62.2587C322.766 61.6266 323.429 61.1467 324.202 60.819C324.974 60.4913 325.821 60.3274 326.742 60.3274C327.647 60.3274 328.486 60.4913 329.258 60.819C330.031 61.1467 330.694 61.6266 331.248 62.2587C331.802 62.8908 332.235 63.6711 332.547 64.5997C332.859 65.5283 333.015 66.5934 333.015 67.7951Z" fill="#142266"/>
<path d="M465.389 108.622C470.56 108.622 474.753 104.43 474.753 99.258C474.753 94.0864 470.56 89.894 465.389 89.894C460.217 89.894 456.025 94.0864 456.025 99.258C456.025 104.43 460.217 108.622 465.389 108.622Z" fill="#FEE245"/>
<path d="M117.05 233.163C119.635 233.163 121.732 231.066 121.732 228.481C121.732 225.895 119.635 223.799 117.05 223.799C114.464 223.799 112.368 225.895 112.368 228.481C112.368 231.066 114.464 233.163 117.05 233.163Z" fill="#FEE245"/>
<path d="M526.254 9.36396C528.84 9.36396 530.936 7.26776 530.936 4.68198C530.936 2.09619 528.84 0 526.254 0C523.668 0 521.572 2.09619 521.572 4.68198C521.572 7.26776 523.668 9.36396 526.254 9.36396Z" fill="#57D5F3"/>
<path d="M598.357 162.933C600.943 162.933 603.039 160.837 603.039 158.251C603.039 155.665 600.943 153.569 598.357 153.569C595.771 153.569 593.675 155.665 593.675 158.251C593.675 160.837 595.771 162.933 598.357 162.933Z" fill="#FEE245"/>
<path d="M4.68198 144.205C7.26776 144.205 9.36396 142.109 9.36396 139.523C9.36396 136.937 7.26776 134.841 4.68198 134.841C2.09619 134.841 0 136.937 0 139.523C0 142.109 2.09619 144.205 4.68198 144.205Z" fill="#14288C"/>
<path d="M90.8303 18.7279C96.0018 18.7279 100.194 14.5355 100.194 9.36396C100.194 4.19239 96.0018 0 90.8303 0C85.6587 0 81.4663 4.19239 81.4663 9.36396C81.4663 14.5355 85.6587 18.7279 90.8303 18.7279Z" fill="#57D5F3"/>
<path d="M535.618 207.88C540.79 207.88 544.982 203.687 544.982 198.516C544.982 193.344 540.79 189.152 535.618 189.152C530.447 189.152 526.254 193.344 526.254 198.516C526.254 203.687 530.447 207.88 535.618 207.88Z" fill="#14288C"/>
<path d="M147.95 89.8939C153.122 89.8939 157.314 85.7015 157.314 80.53C157.314 75.3584 153.122 71.166 147.95 71.166C142.779 71.166 138.586 75.3584 138.586 80.53C138.586 85.7015 142.779 89.8939 147.95 89.8939Z" fill="#14288C"/>
<path d="M258.445 224.735H359.576V253.763H258.445V224.735Z" fill="#E6EDF5"/>
<path d="M370.813 265H362.385C360.662 265 359.576 263.944 359.576 262.191V224.735H370.813C372.535 224.735 373.622 225.789 373.622 227.544V262.191C373.622 263.944 372.535 265 370.813 265Z" fill="#ACB8C7"/>
<path fill-rule="evenodd" clip-rule="evenodd" d="M271.086 236.908C272.897 236.908 274.364 238.376 274.364 240.186V253.763H267.809V240.186C267.809 238.376 269.276 236.908 271.086 236.908Z" fill="#ACB8C7"/>
<path fill-rule="evenodd" clip-rule="evenodd" d="M321.652 236.908C323.462 236.908 324.929 238.376 324.929 240.186V253.763H318.375V240.186C318.375 238.376 319.842 236.908 321.652 236.908Z" fill="#ACB8C7"/>
<path fill-rule="evenodd" clip-rule="evenodd" d="M295.433 236.908C297.243 236.908 298.71 238.376 298.71 240.186V253.763H292.155V240.186C292.155 238.376 293.623 236.908 295.433 236.908Z" fill="#ACB8C7"/>
<path fill-rule="evenodd" clip-rule="evenodd" d="M345.998 236.908C347.808 236.908 349.275 238.376 349.275 240.186V253.763H342.721V240.186C342.721 238.376 344.188 236.908 345.998 236.908Z" fill="#ACB8C7"/>
<path fill-rule="evenodd" clip-rule="evenodd" d="M283.26 244.399C285.07 244.399 286.537 245.867 286.537 247.677V253.763H279.982V247.677C279.982 245.867 281.45 244.399 283.26 244.399Z" fill="#ACB8C7"/>
<path fill-rule="evenodd" clip-rule="evenodd" d="M333.825 244.399C335.635 244.399 337.103 245.867 337.103 247.677V253.763H330.548V247.677C330.548 245.867 332.015 244.399 333.825 244.399Z" fill="#ACB8C7"/>
<path fill-rule="evenodd" clip-rule="evenodd" d="M309.479 244.399C311.289 244.399 312.756 245.867 312.756 247.677V253.763H306.201V247.677C306.201 245.867 307.669 244.399 309.479 244.399Z" fill="#ACB8C7"/>
<path d="M258.445 253.763H144.205C142.485 253.763 141.396 252.672 141.396 250.954V195.707C141.396 162.918 167.601 136.714 200.389 136.714C232.246 136.714 258.445 162.918 258.445 195.707V253.763Z" fill="#FEE245"/>
<path d="M199.92 232.226C220.348 232.226 236.908 215.876 236.908 195.707C236.908 175.538 220.348 159.187 199.92 159.187C179.493 159.187 162.933 175.538 162.933 195.707C162.933 215.876 179.493 232.226 199.92 232.226Z" fill="#FFF1A1"/>
</svg>
