<svg width="536" height="240" viewBox="0 0 536 240" fill="none" xmlns="http://www.w3.org/2000/svg">
<path d="M504.445 0C503.077 1.14322 501.71 2.27821 500.208 3.53075C434.413 57.4512 353.176 89.3163 267.885 94.6241H266.473L310.125 138.277C310.677 138.828 311.571 138.828 312.122 138.277C312.263 138.136 312.372 137.967 312.443 137.781L332.145 86.1503L379.923 122.325C380.544 122.796 381.43 122.673 381.901 122.052C382.008 121.911 382.087 121.751 382.135 121.58L397.817 65.672L448.714 101.64C449.351 102.09 450.233 101.938 450.683 101.301C450.833 101.088 450.922 100.837 450.939 100.576L455.015 36.7198L502.401 60.4131C503.099 60.7619 503.947 60.4791 504.296 59.7815C504.394 59.5854 504.445 59.3692 504.445 59.1499V0Z" fill="#F0194D"/>
<path d="M44.0355 96.0365C114.135 138.586 196.038 157.383 277.771 149.704L279.183 148.998L246.541 197.962C246.108 198.611 245.231 198.786 244.582 198.353C244.404 198.235 244.255 198.077 244.147 197.892L216.336 150.41L176.917 193.907C176.393 194.485 175.5 194.529 174.922 194.005C174.759 193.857 174.633 193.673 174.553 193.468L154.901 142.642L107.302 182.082C106.701 182.58 105.811 182.496 105.313 181.895C105.162 181.714 105.06 181.497 105.014 181.265L93.466 122.164L50.1755 153.279C49.5421 153.734 48.6596 153.59 48.2044 152.957C48.0702 152.77 47.9836 152.553 47.9522 152.325L39.7986 93.2119C41.2632 94.1224 42.7319 95.0287 44.0355 96.0365Z" fill="#FEE245"/>
<path fill-rule="evenodd" clip-rule="evenodd" d="M192.327 209.727H350.505V216.788C350.505 220.688 347.343 223.85 343.443 223.85H199.389C195.489 223.85 192.327 220.688 192.327 216.788V209.727Z" fill="#E6EDF5"/>
<path fill-rule="evenodd" clip-rule="evenodd" d="M199.389 65.6719H343.443C347.343 65.6719 350.505 68.8334 350.505 72.7334V144.761H192.327V72.7334C192.327 68.8334 195.489 65.6719 199.389 65.6719ZM229.4 97.4486C234.275 97.4486 238.227 93.4967 238.227 88.6217C238.227 83.7468 234.275 79.7949 229.4 79.7949C224.525 79.7949 220.573 83.7468 220.573 88.6217C220.573 93.4967 224.525 97.4486 229.4 97.4486ZM313.432 97.4486C318.307 97.4486 322.259 93.4967 322.259 88.6217C322.259 83.7468 318.307 79.7949 313.432 79.7949C308.557 79.7949 304.605 83.7468 304.605 88.6217C304.605 93.4967 308.557 97.4486 313.432 97.4486Z" fill="#59AFFF"/>
<path fill-rule="evenodd" clip-rule="evenodd" d="M350.505 144.761L368.672 200.476C369.882 204.184 367.856 208.17 364.148 209.379C363.441 209.609 362.702 209.727 361.959 209.727H180.873C176.973 209.727 173.811 206.565 173.811 202.665C173.811 201.922 173.928 201.183 174.159 200.476L192.327 144.761H350.505Z" fill="#48A5FB"/>
<path fill-rule="evenodd" clip-rule="evenodd" d="M262.236 145.043C262.236 138.829 261.336 134.027 259.535 130.638C257.734 127.248 255.174 125.553 251.856 125.553C248.537 125.553 246.012 127.248 244.282 130.638C242.552 134.027 241.687 138.829 241.687 145.043C241.687 151.257 242.552 156.077 244.282 159.502C246.012 162.926 248.537 164.639 251.856 164.639C255.174 164.639 257.734 162.926 259.535 159.502C261.336 156.077 262.236 151.257 262.236 145.043ZM280.349 145.043C280.349 150.481 279.643 155.318 278.23 159.555C276.818 163.791 274.858 167.34 272.352 170.2C269.845 173.06 266.844 175.231 263.348 176.714C259.853 178.197 256.057 178.938 251.961 178.938C247.795 178.938 243.964 178.197 240.469 176.714C236.973 175.231 233.972 173.06 231.465 170.2C228.959 167.34 227.017 163.791 225.64 159.555C224.263 155.318 223.574 150.481 223.574 145.043C223.574 139.606 224.263 134.786 225.64 130.585C227.017 126.383 228.959 122.852 231.465 119.993C233.972 117.133 236.973 114.961 240.469 113.478C243.964 111.995 247.795 111.254 251.961 111.254C256.057 111.254 259.853 111.995 263.348 113.478C266.844 114.961 269.845 117.133 272.352 119.993C274.858 122.852 276.818 126.383 278.23 130.585C279.643 134.786 280.349 139.606 280.349 145.043ZM300.474 130.002L289.882 133.286C288.822 132.58 287.763 131.591 286.704 130.32C285.645 129.049 285.115 127.284 285.115 125.024C285.115 120.787 287.693 117.821 292.848 116.126L304.711 112.101H308.63C311.666 112.101 314.067 112.984 315.833 114.749C317.598 116.515 318.481 118.916 318.481 121.952V177.138C317.704 177.279 316.557 177.473 315.038 177.72C313.52 177.967 311.984 178.091 310.431 178.091C308.877 178.091 307.483 177.985 306.247 177.773C305.011 177.561 303.969 177.138 303.122 176.502C302.275 175.867 301.621 175.002 301.162 173.907C300.703 172.813 300.474 171.383 300.474 169.617V130.002Z" fill="white"/>
<path d="M437.361 125.695C441.261 125.695 444.422 122.533 444.422 118.633C444.422 114.733 441.261 111.572 437.361 111.572C433.461 111.572 430.299 114.733 430.299 118.633C430.299 122.533 433.461 125.695 437.361 125.695Z" fill="#57D5F3"/>
<path d="M12.2588 76.2641C16.1587 76.2641 19.3203 73.1026 19.3203 69.2026C19.3203 65.3027 16.1587 62.1411 12.2588 62.1411C8.35881 62.1411 5.19727 65.3027 5.19727 69.2026C5.19727 73.1026 8.35881 76.2641 12.2588 76.2641Z" fill="#FEE245"/>
<path d="M476.199 213.257C480.099 213.257 483.261 210.096 483.261 206.196C483.261 202.296 480.099 199.134 476.199 199.134C472.299 199.134 469.138 202.296 469.138 206.196C469.138 210.096 472.299 213.257 476.199 213.257Z" fill="#FEE245"/>
<path fill-rule="evenodd" clip-rule="evenodd" d="M162.37 29.661L168.491 24.8788C169.105 24.3986 169.993 24.5076 170.473 25.1222L181.776 39.59C182.257 40.2046 182.148 41.0922 181.533 41.5724L175.412 46.3547C174.797 46.8349 173.91 46.7259 173.43 46.1112L162.126 31.6434C161.646 31.0288 161.755 30.1413 162.37 29.661Z" fill="#57D5F3"/>
<path fill-rule="evenodd" clip-rule="evenodd" d="M50.7784 129.347L48.378 136.735C48.137 137.477 47.3403 137.883 46.5985 137.642L29.1371 131.968C28.3953 131.727 27.9894 130.93 28.2304 130.188L30.6307 122.801C30.8718 122.059 31.6685 121.653 32.4103 121.894L49.8716 127.568C50.6135 127.809 51.0194 128.606 50.7784 129.347Z" fill="#57D5F3"/>
<path fill-rule="evenodd" clip-rule="evenodd" d="M333.233 23.5103L329.467 30.304C329.089 30.9862 328.23 31.2327 327.548 30.8545L311.49 21.9535C310.807 21.5753 310.561 20.7158 310.939 20.0336L314.705 13.2398C315.083 12.5576 315.943 12.3111 316.625 12.6893L332.683 21.5904C333.365 21.9685 333.611 22.8281 333.233 23.5103Z" fill="#FEE245"/>
<path fill-rule="evenodd" clip-rule="evenodd" d="M409.425 45.9211L415.012 40.5253C415.574 39.9835 416.468 39.9991 417.009 40.5601L429.763 53.7672C430.305 54.3282 430.29 55.2223 429.728 55.7641L424.141 61.16C423.58 61.7018 422.686 61.6862 422.144 61.1251L409.39 47.9181C408.848 47.3571 408.864 46.463 409.425 45.9211Z" fill="#FEE245"/>
<path fill-rule="evenodd" clip-rule="evenodd" d="M3.28184 221.08L0.122452 213.984C-0.1948 213.271 0.12566 212.437 0.838218 212.119L17.6108 204.652C18.3234 204.334 19.1582 204.655 19.4755 205.368L22.6348 212.464C22.9521 213.176 22.6316 214.011 21.9191 214.328L5.14647 221.796C4.43392 222.113 3.59909 221.793 3.28184 221.08Z" fill="#59AFFF"/>
<path fill-rule="evenodd" clip-rule="evenodd" d="M100.397 70.1105L106.348 75.1034C106.945 75.6048 107.023 76.4956 106.522 77.0931L94.7202 91.1576C94.2189 91.7551 93.328 91.8331 92.7305 91.3317L86.7802 86.3387C86.1827 85.8374 86.1047 84.9466 86.6061 84.3491L98.4076 70.2846C98.909 69.687 99.7998 69.6091 100.397 70.1105Z" fill="#F0194D"/>
<path fill-rule="evenodd" clip-rule="evenodd" d="M521.045 129.089L515.364 123.791C514.794 123.259 514.763 122.366 515.294 121.795L527.816 108.368C528.348 107.797 529.242 107.766 529.812 108.298L535.493 113.595C536.063 114.127 536.095 115.021 535.563 115.591L523.041 129.019C522.509 129.59 521.615 129.621 521.045 129.089Z" fill="#F0194D"/>
<path fill-rule="evenodd" clip-rule="evenodd" d="M429.714 199.269L424.618 205.132C424.106 205.72 423.214 205.783 422.625 205.271L408.769 193.226C408.18 192.714 408.118 191.822 408.63 191.233L413.726 185.371C414.237 184.782 415.129 184.72 415.718 185.232L429.575 197.277C430.163 197.789 430.226 198.681 429.714 199.269Z" fill="#F0194D"/>
<path fill-rule="evenodd" clip-rule="evenodd" d="M136.409 220.668L143.449 217.385C144.156 217.055 144.996 217.361 145.326 218.068L153.085 234.708C153.414 235.415 153.109 236.255 152.402 236.585L145.362 239.868C144.655 240.197 143.815 239.891 143.485 239.184L135.726 222.545C135.396 221.838 135.702 220.997 136.409 220.668Z" fill="#F0194D"/>
<path fill-rule="evenodd" clip-rule="evenodd" d="M431.59 3.73399L438.686 0.5746C439.398 0.257349 440.233 0.577808 440.55 1.29037L448.018 18.063C448.335 18.7755 448.015 19.6104 447.302 19.9276L440.206 23.087C439.494 23.4042 438.659 23.0838 438.342 22.3712L430.874 5.59862C430.557 4.88606 430.877 4.05124 431.59 3.73399Z" fill="#59AFFF"/>
</svg>
